<?xml version="1.0" encoding="UTF-8"?>
<svg version="1.1" xmlns="http://www.w3.org/2000/svg" width="208" height="53">
<path d="M0 0 C4.04812712 2.32551984 5.68893107 5.05192392 8 9 C9.2684375 10.2375 9.2684375 10.2375 10.5625 11.5 C13.05596125 14.05739615 14.16014465 15.55659305 15 19 C14.7975763 23.85816876 13.48152147 26.61257371 10 30 C6.75 31.3125 6.75 31.3125 4 32 C5.485 36.95 5.485 36.95 7 42 C5.68 42 4.36 42 3 42 C2.7326001 41.3387915 2.4652002 40.67758301 2.18969727 39.99633789 C0.9832502 37.01732351 -0.22707088 34.03989848 -1.4375 31.0625 C-1.85837891 30.02158203 -2.27925781 28.98066406 -2.71289062 27.90820312 C-3.11572266 26.91884766 -3.51855469 25.92949219 -3.93359375 24.91015625 C-4.4913147 23.53549194 -4.4913147 23.53549194 -5.06030273 22.13305664 C-5.82032819 20.05899699 -5.82032819 20.05899699 -7 19 C-10.3 26.92 -13.6 34.84 -17 43 C-17.99 43 -18.98 43 -20 43 C-19.49202991 38.6822542 -18.80317221 34.96697886 -17 31 C-17.9075 30.9175 -18.815 30.835 -19.75 30.75 C-23.58874809 29.86413506 -24.85229792 29.30415704 -27 26 C-28.34616035 19.83534046 -26.5736779 14.58378468 -23.62890625 9.1640625 C-21.4627106 6.28619106 -19.29451115 5.0757458 -15.96484375 3.81640625 C-13.89165279 3.06379526 -13.89165279 3.06379526 -12.0625 1.4296875 C-8.386625 -1.11836221 -4.29191225 -0.6270651 0 0 Z M-13 7 C-14.7325 7.5878125 -14.7325 7.5878125 -16.5 8.1875 C-20.78620104 10.40713983 -21.73889794 12.24761561 -23.41015625 16.64453125 C-24.26955444 20.07643265 -24.02936436 22.63740975 -23 26 C-19.77208445 28.1519437 -18.71599191 28.20086443 -15 28 C-14.52949219 26.78441406 -14.05898437 25.56882812 -13.57421875 24.31640625 C-12.94589837 22.73153844 -12.31696004 21.14691552 -11.6875 19.5625 C-11.37876953 18.76005859 -11.07003906 17.95761719 -10.75195312 17.13085938 C-10.44580078 16.36708984 -10.13964844 15.60332031 -9.82421875 14.81640625 C-9.54666748 14.10943604 -9.26911621 13.40246582 -8.9831543 12.67407227 C-8 11 -8 11 -5 10 C-4.82984375 10.6290625 -4.6596875 11.258125 -4.484375 11.90625 C-2.85429647 17.66354865 -0.83080597 22.72884406 2 28 C4.92761527 27.67470941 7.32615294 27.40430823 9.875 25.875 C11.70697026 22.82171624 11.41946684 20.47558236 11 17 C9.35601241 14.505674 7.60042343 12.60042343 5.5 10.5 C4 9 4 9 1.9375 6.375 C0.22133095 3.93968019 0.22133095 3.93968019 -2 3 C-7.56363178 2.48484891 -9.29996985 2.95309202 -13 7 Z " fill="#5D4094" transform="translate(160,0)"/>
<path d="M0 0 C0.70833984 -0.020625 1.41667969 -0.04125 2.14648438 -0.0625 C6.9279173 -0.09781991 10.16432398 0.62473346 14.3125 3.25 C15.8246867 6.27437339 15.48513369 8.91241534 15.3125 12.25 C14.3125 14.6875 14.3125 14.6875 13.3125 16.25 C14.04146484 16.85521484 14.04146484 16.85521484 14.78515625 17.47265625 C17.14530041 20.21911556 16.78368312 22.59723048 16.67578125 26.08984375 C16.3125 28.25 16.3125 28.25 14.4375 30.75 C11.34801652 32.93081187 9.6945715 33.37254714 5.9609375 33.34765625 C5.11015625 33.34443359 4.259375 33.34121094 3.3828125 33.33789062 C2.49335937 33.32951172 1.60390625 33.32113281 0.6875 33.3125 C-0.65828125 33.30573242 -0.65828125 33.30573242 -2.03125 33.29882812 C-4.25006648 33.28702591 -6.46875018 33.27056155 -8.6875 33.25 C-8.71215392 28.71102295 -8.73033789 24.17208457 -8.74243164 19.63305664 C-8.7474714 18.08780234 -8.7543032 16.54255284 -8.76293945 14.99731445 C-8.77502076 12.78074971 -8.78073173 10.56424782 -8.78515625 8.34765625 C-8.79031754 7.6528566 -8.79547882 6.95805695 -8.80079651 6.24220276 C-8.80099277 4.5777067 -8.74939129 2.91334501 -8.6875 1.25 C-6.66913658 -0.76836342 -2.75741767 0.01953883 0 0 Z M-4.6875 4.25 C-4.6875 7.55 -4.6875 10.85 -4.6875 14.25 C-2.77114783 14.30423638 -0.85435075 14.34289963 1.0625 14.375 C2.12984375 14.39820313 3.1971875 14.42140625 4.296875 14.4453125 C7.26379468 14.25315449 8.89112516 13.94039376 11.3125 12.25 C12.12421228 9.69480079 12.12421228 9.69480079 12.3125 7.25 C9.82815563 4.90709108 8.53518407 4.27017066 5.078125 3.95703125 C3.33789062 4.00923828 3.33789062 4.00923828 1.5625 4.0625 C0.39203125 4.08957031 -0.7784375 4.11664063 -1.984375 4.14453125 C-2.87640625 4.17933594 -3.7684375 4.21414063 -4.6875 4.25 Z M-4.6875 18.25 C-4.6875 22.21 -4.6875 26.17 -4.6875 30.25 C1.50789258 30.41973678 6.46106425 30.285282 12.3125 28.25 C13.16900653 25.44954954 13.16900653 25.44954954 13.3125 22.25 C11.84726056 19.90770039 11.84726056 19.90770039 9.3125 18.25 C5.8089365 17.76675794 5.8089365 17.76675794 2.0625 18 C0.79921875 18.03609375 -0.4640625 18.0721875 -1.765625 18.109375 C-2.72984375 18.15578125 -3.6940625 18.2021875 -4.6875 18.25 Z " fill="#5C4094" transform="translate(109.6875,9.75)"/>
<path d="M0 0 C2.47713033 2.77738855 2.81267763 4.64843864 3.0625 8.3125 C1.7425 8.3125 0.4225 8.3125 -0.9375 8.3125 C-2.5625 5.875 -2.5625 5.875 -3.9375 3.3125 C-6.74665474 1.90792263 -8.82560534 2.06354843 -11.9375 2.3125 C-14.28011608 3.69176773 -14.28011608 3.69176773 -15.9375 5.3125 C-15.6075 6.9625 -15.2775 8.6125 -14.9375 10.3125 C-13.81730469 10.62703125 -12.69710938 10.9415625 -11.54296875 11.265625 C-10.070093 11.69716821 -8.59744854 12.12950137 -7.125 12.5625 C-6.38701172 12.76746094 -5.64902344 12.97242188 -4.88867188 13.18359375 C-1.58834121 14.16921286 0.5817027 14.83358818 3.0546875 17.296875 C4.78329342 20.75408685 4.44266018 23.83409931 3.5 27.5 C1.27044972 30.31117209 -1.57699544 31.37373557 -4.9375 32.3125 C-11.06362079 32.95735482 -14.83684769 31.48295661 -19.8125 28 C-21.49384713 25.4779793 -21.13401668 23.26025013 -20.9375 20.3125 C-19.9475 20.3125 -18.9575 20.3125 -17.9375 20.3125 C-17.48375 21.281875 -17.03 22.25125 -16.5625 23.25 C-15.27963779 26.38329582 -15.27963779 26.38329582 -12.9375 27.3125 C-10.82794938 27.50988723 -10.82794938 27.50988723 -8.5 27.5 C-7.32630859 27.52126953 -7.32630859 27.52126953 -6.12890625 27.54296875 C-3.64544013 27.45336064 -3.64544013 27.45336064 -0.9375 25.3125 C-0.68719023 22.72869823 -0.68719023 22.72869823 -0.9375 20.3125 C-5.4000119 17.846375 -9.76403147 16.4217822 -14.66796875 15.15625 C-17.17191825 14.22534967 -18.34454185 13.44655823 -19.9375 11.3125 C-20.5839894 6.30220718 -20.79041744 4.4260311 -17.6875 0.375 C-12.08664505 -3.82564121 -6.00538574 -3.44990245 0 0 Z " fill="#5D4094" transform="translate(20.9375,11.6875)"/>
<path d="M0 0 C4.306645 1.99262679 6.39747896 3.89900592 8.46875 8.28125 C9.2509791 14.24310424 9.65165025 20.98218341 6.84375 26.46875 C4.46875 29.28125 4.46875 29.28125 -1.53125 32.28125 C-6.81125 32.28125 -12.09125 32.28125 -17.53125 32.28125 C-17.53125 21.72125 -17.53125 11.16125 -17.53125 0.28125 C-12.61639481 -2.1761776 -5.16635473 -1.46698961 0 0 Z M-14.53125 3.28125 C-14.55849423 6.11464965 -14.57820589 8.94778117 -14.59375 11.78125 C-14.60212891 12.57273437 -14.61050781 13.36421875 -14.61914062 14.1796875 C-14.64016185 19.30886717 -14.27062287 24.20461106 -13.53125 29.28125 C-6.79166718 29.68562497 -2.2007191 29.1915186 3.28125 24.84375 C6.10540393 21.12775798 5.70548711 16.77925511 5.46875 12.28125 C4.31428428 7.76833855 2.33023513 5.82197991 -1.53125 3.28125 C-4.88119801 2.80045481 -4.88119801 2.80045481 -8.34375 3.03125 C-9.50519531 3.06734375 -10.66664063 3.1034375 -11.86328125 3.140625 C-12.74371094 3.18703125 -13.62414062 3.2334375 -14.53125 3.28125 Z " fill="#5C4094" transform="translate(199.53125,10.71875)"/>
<path d="M0 0 C3.53177423 1.17725808 4.11539006 2.15232042 6.25 5.11328125 C6.8584375 5.94923828 7.466875 6.78519531 8.09375 7.64648438 C8.7228125 8.52626953 9.351875 9.40605469 10 10.3125 C10.94359375 11.61477539 10.94359375 11.61477539 11.90625 12.94335938 C13.08155828 14.56563341 14.25376906 16.19015925 15.421875 17.81762695 C16.92448205 19.895567 18.46141669 21.94855559 20 24 C20.33 16.41 20.66 8.82 21 1 C21.99 1 22.98 1 24 1 C24 11.56 24 22.12 24 33 C19.54322217 31.88580554 19.15615096 31.39545524 16.6171875 27.8515625 C16.00746094 27.01109375 15.39773437 26.170625 14.76953125 25.3046875 C14.14433594 24.42039062 13.51914063 23.53609375 12.875 22.625 C12.24207031 21.7484375 11.60914062 20.871875 10.95703125 19.96875 C8.58640394 16.67705094 6.25024916 13.37537374 4 10 C2.34920558 11.65079442 2.77450553 13.63736179 2.68359375 15.91015625 C2.64169922 16.89951172 2.59980469 17.88886719 2.55664062 18.90820312 C2.49766602 20.46958008 2.49766602 20.46958008 2.4375 22.0625 C2.39431641 23.10728516 2.35113281 24.15207031 2.30664062 25.22851562 C2.20018775 27.81886884 2.0981724 30.40932186 2 33 C1.01 33 0.02 33 -1 33 C-1.02465392 28.46102295 -1.04283789 23.92208457 -1.05493164 19.38305664 C-1.0599714 17.83780234 -1.0668032 16.29255284 -1.07543945 14.74731445 C-1.08752076 12.53074971 -1.09323173 10.31424782 -1.09765625 8.09765625 C-1.10281754 7.4028566 -1.10797882 6.70805695 -1.11329651 5.99220276 C-1.11349277 4.3277067 -1.06189129 2.66334501 -1 1 C-0.67 0.67 -0.34 0.34 0 0 Z " fill="#5D4094" transform="translate(61,10)"/>
<path d="M0 0 C0.66 0.33 1.32 0.66 2 1 C2 11.56 2 22.12 2 33 C1.01 33 0.02 33 -1 33 C-1.02465392 28.46102295 -1.04283789 23.92208457 -1.05493164 19.38305664 C-1.0599714 17.83780234 -1.0668032 16.29255284 -1.07543945 14.74731445 C-1.08752076 12.53074971 -1.09323173 10.31424782 -1.09765625 8.09765625 C-1.10281754 7.4028566 -1.10797882 6.70805695 -1.11329651 5.99220276 C-1.11349277 4.3277067 -1.06189129 2.66334501 -1 1 C-0.67 0.67 -0.34 0.34 0 0 Z " fill="#5D4094" transform="translate(42,10)"/>
<path d="M0 0 C0.66 0 1.32 0 2 0 C2 7.92 2 15.84 2 24 C1.34 24 0.68 24 0 24 C0 16.08 0 8.16 0 0 Z " fill="#5D4195" transform="translate(152,29)"/>
</svg>
