<svg width="489" height="123" viewBox="0 0 489 123" fill="none" xmlns="http://www.w3.org/2000/svg">
<path fill-rule="evenodd" clip-rule="evenodd" d="M367.2 5.68432C358.731 4.36418 349.757 7.92819 344.599 16.9433C344.114 17.7913 343.207 18.3152 342.224 18.3152C334.152 18.3152 330.683 20.2457 328.83 22.6638C326.749 25.3802 326.115 29.3158 325.26 34.9726C325.114 35.937 324.457 36.7493 323.539 37.0994C323.318 37.1837 322.771 37.5339 322.052 38.4647C321.37 39.3483 320.678 40.5707 320.091 42.0541C318.913 45.0323 318.27 48.7796 318.778 52.4196C319.278 56.0111 320.884 59.4582 324.194 62.101C327.535 64.7679 332.875 66.8245 341.216 67.0831C342.724 67.1298 343.908 68.3801 343.861 69.8756C343.814 71.3712 342.553 72.5457 341.046 72.499C331.907 72.2157 325.298 69.9376 320.769 66.3223C316.211 62.683 314.027 57.9008 313.367 53.1614C312.713 48.4704 313.538 43.7851 315.006 40.0748C315.742 38.2141 316.667 36.5281 317.716 35.1703C318.376 34.3145 319.158 33.4954 320.054 32.8649C320.78 28.0729 321.632 23.1032 324.481 19.3851C327.618 15.2913 332.705 13.1606 340.665 12.9197C347.099 2.86478 357.843 -1.25919 368.048 0.331499C378.331 1.93436 387.862 9.28971 391.956 21.6469C401.79 25.5531 409.128 36.6983 409.343 47.5217C409.458 53.3182 407.541 59.1495 402.798 63.7662C398.087 68.3527 390.841 71.4983 380.729 72.4872C379.228 72.634 377.891 71.5459 377.743 70.0569C377.595 68.5678 378.692 67.2417 380.193 67.0948C389.473 66.1873 395.404 63.3725 398.972 59.899C402.509 56.4556 403.971 52.1273 403.882 47.6286C403.697 38.3579 396.964 28.8973 388.906 26.3114C388.043 26.0344 387.375 25.3503 387.123 24.4856C383.855 13.265 375.671 7.00474 367.2 5.68432Z" fill="white"/>
<path d="M12.7002 52.5257C16.1143 54.8286 21.9523 56.6912 30.2143 58.1136C30.4191 58.1813 31.614 58.4522 33.799 58.9263C40.9685 60.4842 46.2261 62.3468 49.5719 64.5142C54.9661 67.9685 57.6632 72.879 57.6632 79.2458C57.6632 80.3295 57.5949 81.447 57.4583 82.5985C56.639 88.8975 53.0201 93.6725 46.6017 96.9236C41.8903 99.362 36.462 100.615 30.3167 100.683C29.3608 100.683 28.4048 100.649 27.4489 100.581C20.1428 100.107 13.9634 98.1089 8.91065 94.5869C2.97022 90.3876 0 84.9013 0 78.1282C0 77.2477 0.307264 76.5026 0.921791 75.8931C1.53632 75.2157 2.28741 74.8771 3.17506 74.8771C4.13099 74.8771 4.88208 75.2157 5.42833 75.8931C6.04285 76.5026 6.35012 77.2477 6.35012 78.1282C6.35012 82.7339 8.39854 86.493 12.4954 89.4055C16.5922 92.2502 21.6792 93.8419 27.7562 94.1805C28.6438 94.2483 29.4973 94.2821 30.3167 94.2821C35.3012 94.2821 39.7394 93.3 43.6315 91.3358C48.138 89.0329 50.6644 85.8496 51.2106 81.7857C51.3472 80.9729 51.3813 80.2279 51.313 79.5505C51.313 75.3512 49.5719 72.1001 46.0896 69.7972C44.1777 68.6458 41.9244 67.6976 39.3298 66.9525C36.8034 66.1397 34.4818 65.5301 32.3651 65.1238C29.9753 64.6496 28.6779 64.3448 28.4731 64.2094H28.2683C23.6252 63.2611 19.8356 62.3468 16.8995 61.4663C13.9634 60.518 11.3688 59.265 9.11549 57.7072C4.60896 54.5915 2.35569 50.3922 2.35569 45.1091C2.35569 43.0772 2.69709 40.8759 3.3799 38.5053C4.74552 33.2223 8.12542 29.1584 13.5196 26.3137C17.8213 24.0108 22.6351 22.8594 27.961 22.8594C28.5072 22.8594 29.0876 22.8594 29.7022 22.8594C35.7792 23.1303 41.2416 24.959 46.0896 28.3456C50.9375 31.7322 53.9077 36.5072 55.0002 42.6708C55.2051 43.4836 55.0344 44.2625 54.4881 45.0075C53.9419 45.7526 53.2249 46.1928 52.3373 46.3283C51.5179 46.4638 50.7327 46.2944 49.9816 45.8203C49.2988 45.3462 48.8549 44.635 48.6501 43.6868C47.899 39.2165 45.714 35.7622 42.0951 33.3239C38.4762 30.8178 34.2428 29.4632 29.3949 29.26C28.9169 29.26 28.4731 29.26 28.0634 29.26C23.7617 29.26 19.9039 30.1405 16.4898 31.9015C12.7344 33.9335 10.4128 36.6088 9.52518 39.9277C8.97893 41.8919 8.70581 43.619 8.70581 45.1091C8.70581 46.1251 8.84237 47.0395 9.11549 47.8523C9.73002 49.7487 10.9249 51.3066 12.7002 52.5257Z" fill="white"/>
<path d="M103.29 28.244C103.29 36.1686 103.29 43.6529 103.29 50.697C103.153 72.0324 103.085 87.0687 103.085 95.8061C103.085 96.6189 102.778 97.3639 102.163 98.0412C101.549 98.6508 100.798 98.9556 99.9099 98.9556C99.0222 98.9556 98.2711 98.6508 97.6566 98.0412C97.0421 97.4316 96.7348 96.6866 96.7348 95.8061C96.7348 87.6783 96.7348 79.9231 96.7348 72.5403C96.8031 65.0899 96.8372 57.8088 96.8372 50.697C96.9055 43.5852 96.9397 36.1009 96.9397 28.244C96.9397 27.3635 97.2469 26.6185 97.8615 26.0089C98.476 25.3316 99.2271 24.9929 100.115 24.9929C101.002 24.9929 101.753 25.3316 102.368 26.0089C102.983 26.6185 103.29 27.3635 103.29 28.244Z" fill="white"/>
<path d="M145.024 99.0572C144.137 99.0572 143.386 98.7524 142.771 98.1428C142.157 97.5332 141.849 96.4157 141.849 94.7901C141.849 93.0968 141.815 85.985 141.747 73.4547C141.747 69.5263 141.747 65.8349 141.747 62.3806C141.747 54.6593 141.781 48.0216 141.849 42.4676C141.986 34.4076 142.054 30.0728 142.054 29.4632V28.0408C142.054 26.483 142.771 25.467 144.205 24.9929C144.615 24.8575 144.99 24.8236 145.332 24.8913C146.561 24.8913 147.551 25.5686 148.302 26.9233L150.043 29.0568L190.909 83.6144C191.592 84.5627 192.343 85.5448 193.162 86.5607C193.162 83.3774 193.128 80.194 193.06 77.0106C193.06 60.9583 193.231 44.7366 193.572 28.3456C193.572 27.5328 193.879 26.8217 194.494 26.2121C195.177 25.5348 195.962 25.23 196.85 25.2977C197.737 25.2977 198.454 25.6025 199 26.2121C199.615 26.8217 199.922 27.5667 199.922 28.4472C199.581 48.3602 199.41 63.7014 199.41 74.4707C199.41 75.5544 199.444 76.6042 199.512 77.6202C199.512 83.0387 199.512 87.1703 199.512 90.015C199.581 92.8598 199.581 94.3837 199.512 94.5869V96.1109C199.512 97.7364 198.796 98.7863 197.362 99.2604C197.02 99.3958 196.645 99.4636 196.235 99.4636C195.074 99.4636 194.084 98.7524 193.265 97.33C192.787 96.7882 192.206 96.077 191.524 95.1965L148.302 37.4894V42.5692C148.234 51.442 148.199 59.1634 148.199 65.7333C148.199 68.9845 148.199 71.9308 148.199 74.5723C148.199 76.5365 148.199 78.3314 148.199 79.9569C148.199 84.0208 148.199 87.4074 148.199 90.1166C148.199 92.7582 148.199 94.6885 148.199 95.9077C148.199 96.7205 147.892 97.4655 147.278 98.1428C146.663 98.7524 145.912 99.0572 145.024 99.0572Z" fill="white"/>
<path d="M251.387 63.3966C248.656 63.4643 246.505 63.4982 244.934 63.4982V92.9614C249.304 93.0968 253.333 93.1646 257.02 93.1646C268.013 93.1646 275.831 92.4534 280.474 91.031C283.684 90.1505 285.971 88.8298 287.337 87.0687C288.771 85.3077 289.624 82.6323 289.897 79.0426C289.897 78.6362 289.897 78.2298 289.897 77.8234C289.897 71.7276 287.064 67.596 281.396 65.4286C277.641 64.0062 272.964 63.295 267.365 63.295C267.091 63.295 266.818 63.295 266.545 63.295C265.862 63.295 264.497 63.3289 262.448 63.3966C261.561 63.4643 260.4 63.4982 258.966 63.4982C256.986 63.4982 254.459 63.4643 251.387 63.3966ZM261.526 30.5808C257.839 30.5808 252.309 30.8178 244.934 31.2919V56.8944C245.822 56.8944 247.051 56.9283 248.621 56.996C250.192 56.996 251.182 56.996 251.592 56.996H253.435C256.508 56.8605 260.844 56.7928 266.443 56.7928C280.235 55.8446 287.132 51.2727 287.132 43.0772C287.132 38.2683 284.913 34.9833 280.474 33.2223C276.241 31.4613 270.232 30.5808 262.448 30.5808C262.107 30.5808 261.8 30.5808 261.526 30.5808ZM241.657 24.9929L261.424 24.2817C261.697 24.2817 262.004 24.2817 262.346 24.2817C271.086 24.2817 277.811 25.23 282.523 27.1265C289.897 30.1066 293.584 35.2881 293.584 42.6708C293.584 50.189 290.273 55.6752 283.65 59.1295C283.445 59.1973 283.274 59.2989 283.137 59.4343C283.274 59.4343 283.411 59.4682 283.547 59.5359C292.014 62.7193 296.281 68.9167 296.35 78.1282C296.35 78.67 296.316 79.2796 296.247 79.9569C295.974 84.5627 294.711 88.254 292.458 91.031C290.204 93.7403 286.859 95.8061 282.42 97.2284C277.436 98.7185 269.413 99.4636 258.351 99.4636C257.873 99.4636 257.396 99.4636 256.918 99.4636C252.343 99.4636 247.324 99.362 241.862 99.1588C241.315 99.1588 240.769 99.0233 240.223 98.7524C239.13 98.1428 238.584 97.1946 238.584 95.9077V28.8536C238.516 28.6504 238.482 28.2779 238.482 27.736C238.482 27.1942 238.789 26.6185 239.404 26.0089C240.086 25.3993 240.837 25.0606 241.657 24.9929Z" fill="white"/>
<path d="M448.646 99.87L433.693 99.2604C433.146 99.2604 432.6 99.1249 432.054 98.854H431.951C431.064 98.854 430.313 98.5492 429.698 97.9396C429.084 97.2623 428.776 96.5173 428.776 95.7045C428.776 88.1863 428.742 80.939 428.674 73.9627C428.674 66.9186 428.674 59.4682 428.674 51.6113V28.6504C428.674 27.7699 428.947 27.0249 429.493 26.4153C430.108 25.738 430.722 25.3993 431.337 25.3993C431.951 25.3993 432.361 25.4332 432.566 25.5009C438.575 24.7559 444.105 24.3833 449.158 24.3833C460.629 24.3833 469.403 26.3475 475.48 30.276C480.124 33.1884 483.469 37.1168 485.518 42.0612C487.566 47.0056 488.727 52.8982 489 59.7391C489 60.281 489 60.8228 489 61.3647C489 73.3531 485.927 82.5985 479.782 89.1007C473.091 96.2802 462.712 99.87 448.646 99.87ZM435.024 31.5967V64.0062C435.092 76.6042 435.126 86.256 435.126 92.9614C435.604 92.9614 437.38 93.063 440.452 93.2662C443.593 93.4693 446.598 93.5709 449.465 93.5709C461.141 93.5709 469.711 90.6585 475.173 84.8336C480.089 79.4828 482.547 71.5921 482.547 61.1615C482.547 60.7551 482.547 60.3148 482.547 59.8407C482.411 53.7449 481.489 48.7328 479.782 44.8043C478.143 40.8759 475.583 37.7941 472.1 35.559C466.979 32.3079 459.4 30.6824 449.363 30.6824C445.061 30.6824 440.282 30.9871 435.024 31.5967Z" fill="white"/>
<path fill-rule="evenodd" clip-rule="evenodd" d="M360.261 24.3833C361.597 24.3879 362.796 25.1965 363.293 26.427L390.605 94.1584C391.277 95.8255 390.46 97.7175 388.779 98.3844C387.098 99.0512 385.191 98.2403 384.519 96.5732L360.219 36.3137L335.426 96.594C334.742 98.2564 332.829 99.0543 331.153 98.376C329.477 97.6977 328.672 95.8001 329.356 94.1376L357.215 26.4062C357.72 25.1791 358.925 24.3788 360.261 24.3833Z" fill="white"/>
<path fill-rule="evenodd" clip-rule="evenodd" d="M359.704 67.731C360.911 67.731 361.889 68.7013 361.889 69.8984V120.832C361.889 122.029 360.911 123 359.704 123C358.497 123 357.519 122.029 357.519 120.832V69.8984C357.519 68.7013 358.497 67.731 359.704 67.731Z" fill="white"/>
</svg>
